<mxfile host="app.diagrams.net" modified="2020-12-28T00:48:25.248Z" agent="5.0 (iPad; CPU OS 14_2 like Mac OS X) AppleWebKit/605.1.15 (KHTML, like Gecko) Version/14.0.1 Mobile/15E148 Safari/604.1" etag="menoinVaLNNA2mYPm_Ud" version="14.1.2" type="github">
  <diagram id="HV9mWSHalBPXCo9_vCjQ" name="Page-1">
    <mxGraphModel dx="1106" dy="190" grid="1" gridSize="10" guides="1" tooltips="1" connect="1" arrows="1" fold="1" page="0" pageScale="1" pageWidth="1169" pageHeight="827" math="0" shadow="0">
      <root>
        <mxCell id="0" />
        <mxCell id="1" parent="0" />
        <mxCell id="VVUkxqM4Ph0whAlOTtxZ-1" value="invoice" style="shape=table;startSize=30;container=1;collapsible=1;childLayout=tableLayout;fixedRows=1;rowLines=0;fontStyle=1;align=center;resizeLast=1;fillColor=#B2C9AB;strokeColor=#788AA3;fontColor=#46495D;" parent="1" vertex="1">
          <mxGeometry x="190" y="140" width="180" height="220" as="geometry" />
        </mxCell>
        <mxCell id="VVUkxqM4Ph0whAlOTtxZ-2" value="" style="shape=partialRectangle;collapsible=0;dropTarget=0;pointerEvents=0;fillColor=none;top=0;left=0;bottom=1;right=0;points=[[0,0.5],[1,0.5]];portConstraint=eastwest;strokeColor=#788AA3;fontColor=#46495D;" parent="VVUkxqM4Ph0whAlOTtxZ-1" vertex="1">
          <mxGeometry y="30" width="180" height="30" as="geometry" />
        </mxCell>
        <mxCell id="VVUkxqM4Ph0whAlOTtxZ-3" value="PK" style="shape=partialRectangle;connectable=0;fillColor=none;top=0;left=0;bottom=0;right=0;fontStyle=1;overflow=hidden;strokeColor=#788AA3;fontColor=#46495D;" parent="VVUkxqM4Ph0whAlOTtxZ-2" vertex="1">
          <mxGeometry width="30" height="30" as="geometry" />
        </mxCell>
        <mxCell id="VVUkxqM4Ph0whAlOTtxZ-4" value="invoice_id (integer)" style="shape=partialRectangle;connectable=0;fillColor=none;top=0;left=0;bottom=0;right=0;align=left;spacingLeft=6;fontStyle=5;overflow=hidden;strokeColor=#788AA3;fontColor=#46495D;" parent="VVUkxqM4Ph0whAlOTtxZ-2" vertex="1">
          <mxGeometry x="30" width="150" height="30" as="geometry" />
        </mxCell>
        <mxCell id="VVUkxqM4Ph0whAlOTtxZ-5" value="" style="shape=partialRectangle;collapsible=0;dropTarget=0;pointerEvents=0;fillColor=none;top=0;left=0;bottom=0;right=0;points=[[0,0.5],[1,0.5]];portConstraint=eastwest;strokeColor=#788AA3;fontColor=#46495D;" parent="VVUkxqM4Ph0whAlOTtxZ-1" vertex="1">
          <mxGeometry y="60" width="180" height="30" as="geometry" />
        </mxCell>
        <mxCell id="VVUkxqM4Ph0whAlOTtxZ-6" value="FK" style="shape=partialRectangle;connectable=0;fillColor=none;top=0;left=0;bottom=0;right=0;editable=1;overflow=hidden;strokeColor=#788AA3;fontColor=#46495D;" parent="VVUkxqM4Ph0whAlOTtxZ-5" vertex="1">
          <mxGeometry width="30" height="30" as="geometry" />
        </mxCell>
        <mxCell id="VVUkxqM4Ph0whAlOTtxZ-7" value="shop_id (integer)" style="shape=partialRectangle;connectable=0;fillColor=none;top=0;left=0;bottom=0;right=0;align=left;spacingLeft=6;overflow=hidden;strokeColor=#788AA3;fontColor=#46495D;" parent="VVUkxqM4Ph0whAlOTtxZ-5" vertex="1">
          <mxGeometry x="30" width="150" height="30" as="geometry" />
        </mxCell>
        <mxCell id="VVUkxqM4Ph0whAlOTtxZ-8" style="shape=partialRectangle;collapsible=0;dropTarget=0;pointerEvents=0;fillColor=none;top=0;left=0;bottom=0;right=0;points=[[0,0.5],[1,0.5]];portConstraint=eastwest;strokeColor=#788AA3;fontColor=#46495D;" parent="VVUkxqM4Ph0whAlOTtxZ-1" vertex="1">
          <mxGeometry y="90" width="180" height="30" as="geometry" />
        </mxCell>
        <mxCell id="VVUkxqM4Ph0whAlOTtxZ-9" style="shape=partialRectangle;connectable=0;fillColor=none;top=0;left=0;bottom=0;right=0;editable=1;overflow=hidden;strokeColor=#788AA3;fontColor=#46495D;" parent="VVUkxqM4Ph0whAlOTtxZ-8" vertex="1">
          <mxGeometry width="30" height="30" as="geometry" />
        </mxCell>
        <mxCell id="VVUkxqM4Ph0whAlOTtxZ-10" value="total_price (double)" style="shape=partialRectangle;connectable=0;fillColor=none;top=0;left=0;bottom=0;right=0;align=left;spacingLeft=6;overflow=hidden;strokeColor=#788AA3;fontColor=#46495D;" parent="VVUkxqM4Ph0whAlOTtxZ-8" vertex="1">
          <mxGeometry x="30" width="150" height="30" as="geometry" />
        </mxCell>
        <mxCell id="VVUkxqM4Ph0whAlOTtxZ-11" value="" style="shape=partialRectangle;collapsible=0;dropTarget=0;pointerEvents=0;fillColor=none;top=0;left=0;bottom=0;right=0;points=[[0,0.5],[1,0.5]];portConstraint=eastwest;strokeColor=#788AA3;fontColor=#46495D;" parent="VVUkxqM4Ph0whAlOTtxZ-1" vertex="1">
          <mxGeometry y="120" width="180" height="30" as="geometry" />
        </mxCell>
        <mxCell id="VVUkxqM4Ph0whAlOTtxZ-12" value="" style="shape=partialRectangle;connectable=0;fillColor=none;top=0;left=0;bottom=0;right=0;editable=1;overflow=hidden;strokeColor=#788AA3;fontColor=#46495D;" parent="VVUkxqM4Ph0whAlOTtxZ-11" vertex="1">
          <mxGeometry width="30" height="30" as="geometry" />
        </mxCell>
        <mxCell id="VVUkxqM4Ph0whAlOTtxZ-13" value="created_at (date)" style="shape=partialRectangle;connectable=0;fillColor=none;top=0;left=0;bottom=0;right=0;align=left;spacingLeft=6;overflow=hidden;strokeColor=#788AA3;fontColor=#46495D;" parent="VVUkxqM4Ph0whAlOTtxZ-11" vertex="1">
          <mxGeometry x="30" width="150" height="30" as="geometry" />
        </mxCell>
        <mxCell id="VVUkxqM4Ph0whAlOTtxZ-14" value="" style="shape=partialRectangle;collapsible=0;dropTarget=0;pointerEvents=0;fillColor=none;top=0;left=0;bottom=0;right=0;points=[[0,0.5],[1,0.5]];portConstraint=eastwest;strokeColor=#788AA3;fontColor=#46495D;" parent="VVUkxqM4Ph0whAlOTtxZ-1" vertex="1">
          <mxGeometry y="150" width="180" height="30" as="geometry" />
        </mxCell>
        <mxCell id="VVUkxqM4Ph0whAlOTtxZ-15" value="" style="shape=partialRectangle;connectable=0;fillColor=none;top=0;left=0;bottom=0;right=0;editable=1;overflow=hidden;strokeColor=#788AA3;fontColor=#46495D;" parent="VVUkxqM4Ph0whAlOTtxZ-14" vertex="1">
          <mxGeometry width="30" height="30" as="geometry" />
        </mxCell>
        <mxCell id="VVUkxqM4Ph0whAlOTtxZ-16" value="updated_at (date)" style="shape=partialRectangle;connectable=0;fillColor=none;top=0;left=0;bottom=0;right=0;align=left;spacingLeft=6;overflow=hidden;strokeColor=#788AA3;fontColor=#46495D;" parent="VVUkxqM4Ph0whAlOTtxZ-14" vertex="1">
          <mxGeometry x="30" width="150" height="30" as="geometry" />
        </mxCell>
        <mxCell id="VVUkxqM4Ph0whAlOTtxZ-17" style="shape=partialRectangle;collapsible=0;dropTarget=0;pointerEvents=0;fillColor=none;top=0;left=0;bottom=0;right=0;points=[[0,0.5],[1,0.5]];portConstraint=eastwest;strokeColor=#788AA3;fontColor=#46495D;" parent="VVUkxqM4Ph0whAlOTtxZ-1" vertex="1">
          <mxGeometry y="180" width="180" height="30" as="geometry" />
        </mxCell>
        <mxCell id="VVUkxqM4Ph0whAlOTtxZ-18" style="shape=partialRectangle;connectable=0;fillColor=none;top=0;left=0;bottom=0;right=0;editable=1;overflow=hidden;strokeColor=#788AA3;fontColor=#46495D;" parent="VVUkxqM4Ph0whAlOTtxZ-17" vertex="1">
          <mxGeometry width="30" height="30" as="geometry" />
        </mxCell>
        <mxCell id="VVUkxqM4Ph0whAlOTtxZ-19" value="deleted_at (date)" style="shape=partialRectangle;connectable=0;fillColor=none;top=0;left=0;bottom=0;right=0;align=left;spacingLeft=6;overflow=hidden;strokeColor=#788AA3;fontColor=#46495D;" parent="VVUkxqM4Ph0whAlOTtxZ-17" vertex="1">
          <mxGeometry x="30" width="150" height="30" as="geometry" />
        </mxCell>
        <mxCell id="VVUkxqM4Ph0whAlOTtxZ-20" value="invoice_product" style="shape=table;startSize=30;container=1;collapsible=1;childLayout=tableLayout;fixedRows=1;rowLines=0;fontStyle=1;align=center;resizeLast=1;fillColor=#B2C9AB;strokeColor=#788AA3;fontColor=#46495D;" parent="1" vertex="1">
          <mxGeometry x="430" y="230" width="230" height="130" as="geometry" />
        </mxCell>
        <mxCell id="VVUkxqM4Ph0whAlOTtxZ-21" value="" style="shape=partialRectangle;collapsible=0;dropTarget=0;pointerEvents=0;fillColor=none;top=0;left=0;bottom=1;right=0;points=[[0,0.5],[1,0.5]];portConstraint=eastwest;strokeColor=#788AA3;fontColor=#46495D;" parent="VVUkxqM4Ph0whAlOTtxZ-20" vertex="1">
          <mxGeometry y="30" width="230" height="30" as="geometry" />
        </mxCell>
        <mxCell id="VVUkxqM4Ph0whAlOTtxZ-22" value="PK" style="shape=partialRectangle;connectable=0;fillColor=none;top=0;left=0;bottom=0;right=0;fontStyle=1;overflow=hidden;strokeColor=#788AA3;fontColor=#46495D;" parent="VVUkxqM4Ph0whAlOTtxZ-21" vertex="1">
          <mxGeometry width="30" height="30" as="geometry" />
        </mxCell>
        <mxCell id="VVUkxqM4Ph0whAlOTtxZ-23" value="invoice_product_id (integer)" style="shape=partialRectangle;connectable=0;fillColor=none;top=0;left=0;bottom=0;right=0;align=left;spacingLeft=6;fontStyle=5;overflow=hidden;strokeColor=#788AA3;fontColor=#46495D;" parent="VVUkxqM4Ph0whAlOTtxZ-21" vertex="1">
          <mxGeometry x="30" width="200" height="30" as="geometry" />
        </mxCell>
        <mxCell id="VVUkxqM4Ph0whAlOTtxZ-24" value="" style="shape=partialRectangle;collapsible=0;dropTarget=0;pointerEvents=0;fillColor=none;top=0;left=0;bottom=0;right=0;points=[[0,0.5],[1,0.5]];portConstraint=eastwest;strokeColor=#788AA3;fontColor=#46495D;" parent="VVUkxqM4Ph0whAlOTtxZ-20" vertex="1">
          <mxGeometry y="60" width="230" height="30" as="geometry" />
        </mxCell>
        <mxCell id="VVUkxqM4Ph0whAlOTtxZ-25" value="FK" style="shape=partialRectangle;connectable=0;fillColor=none;top=0;left=0;bottom=0;right=0;editable=1;overflow=hidden;strokeColor=#788AA3;fontColor=#46495D;" parent="VVUkxqM4Ph0whAlOTtxZ-24" vertex="1">
          <mxGeometry width="30" height="30" as="geometry" />
        </mxCell>
        <mxCell id="VVUkxqM4Ph0whAlOTtxZ-26" value="invoice_id (integer)" style="shape=partialRectangle;connectable=0;fillColor=none;top=0;left=0;bottom=0;right=0;align=left;spacingLeft=6;overflow=hidden;strokeColor=#788AA3;fontColor=#46495D;" parent="VVUkxqM4Ph0whAlOTtxZ-24" vertex="1">
          <mxGeometry x="30" width="200" height="30" as="geometry" />
        </mxCell>
        <mxCell id="VVUkxqM4Ph0whAlOTtxZ-27" value="" style="shape=partialRectangle;collapsible=0;dropTarget=0;pointerEvents=0;fillColor=none;top=0;left=0;bottom=0;right=0;points=[[0,0.5],[1,0.5]];portConstraint=eastwest;strokeColor=#788AA3;fontColor=#46495D;" parent="VVUkxqM4Ph0whAlOTtxZ-20" vertex="1">
          <mxGeometry y="90" width="230" height="30" as="geometry" />
        </mxCell>
        <mxCell id="VVUkxqM4Ph0whAlOTtxZ-28" value="FK" style="shape=partialRectangle;connectable=0;fillColor=none;top=0;left=0;bottom=0;right=0;editable=1;overflow=hidden;strokeColor=#788AA3;fontColor=#46495D;" parent="VVUkxqM4Ph0whAlOTtxZ-27" vertex="1">
          <mxGeometry width="30" height="30" as="geometry" />
        </mxCell>
        <mxCell id="VVUkxqM4Ph0whAlOTtxZ-29" value="product_id (integer)" style="shape=partialRectangle;connectable=0;fillColor=none;top=0;left=0;bottom=0;right=0;align=left;spacingLeft=6;overflow=hidden;strokeColor=#788AA3;fontColor=#46495D;" parent="VVUkxqM4Ph0whAlOTtxZ-27" vertex="1">
          <mxGeometry x="30" width="200" height="30" as="geometry" />
        </mxCell>
        <mxCell id="VVUkxqM4Ph0whAlOTtxZ-30" value="" style="edgeStyle=entityRelationEdgeStyle;fontSize=12;html=1;endArrow=ERoneToMany;entryX=0;entryY=0.5;entryDx=0;entryDy=0;strokeColor=#788AA3;fontColor=#46495D;" parent="1" source="VVUkxqM4Ph0whAlOTtxZ-2" target="VVUkxqM4Ph0whAlOTtxZ-24" edge="1">
          <mxGeometry width="100" height="100" relative="1" as="geometry">
            <mxPoint x="370" y="200" as="sourcePoint" />
            <mxPoint x="470" y="90" as="targetPoint" />
          </mxGeometry>
        </mxCell>
        <mxCell id="VVUkxqM4Ph0whAlOTtxZ-31" value="shop" style="shape=table;startSize=30;container=1;collapsible=1;childLayout=tableLayout;fixedRows=1;rowLines=0;fontStyle=1;align=center;resizeLast=1;fillColor=#B2C9AB;strokeColor=#788AA3;fontColor=#46495D;" parent="1" vertex="1">
          <mxGeometry x="-50" y="140" width="180" height="400" as="geometry" />
        </mxCell>
        <mxCell id="VVUkxqM4Ph0whAlOTtxZ-32" value="" style="shape=partialRectangle;collapsible=0;dropTarget=0;pointerEvents=0;fillColor=none;top=0;left=0;bottom=1;right=0;points=[[0,0.5],[1,0.5]];portConstraint=eastwest;strokeColor=#788AA3;fontColor=#46495D;" parent="VVUkxqM4Ph0whAlOTtxZ-31" vertex="1">
          <mxGeometry y="30" width="180" height="30" as="geometry" />
        </mxCell>
        <mxCell id="VVUkxqM4Ph0whAlOTtxZ-33" value="PK" style="shape=partialRectangle;connectable=0;fillColor=none;top=0;left=0;bottom=0;right=0;fontStyle=1;overflow=hidden;strokeColor=#788AA3;fontColor=#46495D;" parent="VVUkxqM4Ph0whAlOTtxZ-32" vertex="1">
          <mxGeometry width="30" height="30" as="geometry" />
        </mxCell>
        <mxCell id="VVUkxqM4Ph0whAlOTtxZ-34" value="shop_id (integer)" style="shape=partialRectangle;connectable=0;fillColor=none;top=0;left=0;bottom=0;right=0;align=left;spacingLeft=6;fontStyle=5;overflow=hidden;strokeColor=#788AA3;fontColor=#46495D;" parent="VVUkxqM4Ph0whAlOTtxZ-32" vertex="1">
          <mxGeometry x="30" width="150" height="30" as="geometry" />
        </mxCell>
        <mxCell id="VVUkxqM4Ph0whAlOTtxZ-35" value="" style="shape=partialRectangle;collapsible=0;dropTarget=0;pointerEvents=0;fillColor=none;top=0;left=0;bottom=0;right=0;points=[[0,0.5],[1,0.5]];portConstraint=eastwest;strokeColor=#788AA3;fontColor=#46495D;" parent="VVUkxqM4Ph0whAlOTtxZ-31" vertex="1">
          <mxGeometry y="60" width="180" height="30" as="geometry" />
        </mxCell>
        <mxCell id="VVUkxqM4Ph0whAlOTtxZ-36" value="" style="shape=partialRectangle;connectable=0;fillColor=none;top=0;left=0;bottom=0;right=0;editable=1;overflow=hidden;strokeColor=#788AA3;fontColor=#46495D;" parent="VVUkxqM4Ph0whAlOTtxZ-35" vertex="1">
          <mxGeometry width="30" height="30" as="geometry" />
        </mxCell>
        <mxCell id="VVUkxqM4Ph0whAlOTtxZ-37" value="shop_name (varchar)" style="shape=partialRectangle;connectable=0;fillColor=none;top=0;left=0;bottom=0;right=0;align=left;spacingLeft=6;overflow=hidden;strokeColor=#788AA3;fontColor=#46495D;" parent="VVUkxqM4Ph0whAlOTtxZ-35" vertex="1">
          <mxGeometry x="30" width="150" height="30" as="geometry" />
        </mxCell>
        <mxCell id="VVUkxqM4Ph0whAlOTtxZ-38" value="" style="shape=partialRectangle;collapsible=0;dropTarget=0;pointerEvents=0;fillColor=none;top=0;left=0;bottom=0;right=0;points=[[0,0.5],[1,0.5]];portConstraint=eastwest;strokeColor=#788AA3;fontColor=#46495D;" parent="VVUkxqM4Ph0whAlOTtxZ-31" vertex="1">
          <mxGeometry y="90" width="180" height="30" as="geometry" />
        </mxCell>
        <mxCell id="VVUkxqM4Ph0whAlOTtxZ-39" value="FK" style="shape=partialRectangle;connectable=0;fillColor=none;top=0;left=0;bottom=0;right=0;editable=1;overflow=hidden;strokeColor=#788AA3;fontColor=#46495D;" parent="VVUkxqM4Ph0whAlOTtxZ-38" vertex="1">
          <mxGeometry width="30" height="30" as="geometry" />
        </mxCell>
        <mxCell id="VVUkxqM4Ph0whAlOTtxZ-40" value="owner_id (integer)" style="shape=partialRectangle;connectable=0;fillColor=none;top=0;left=0;bottom=0;right=0;align=left;spacingLeft=6;overflow=hidden;strokeColor=#788AA3;fontColor=#46495D;" parent="VVUkxqM4Ph0whAlOTtxZ-38" vertex="1">
          <mxGeometry x="30" width="150" height="30" as="geometry" />
        </mxCell>
        <mxCell id="VVUkxqM4Ph0whAlOTtxZ-41" value="" style="shape=partialRectangle;collapsible=0;dropTarget=0;pointerEvents=0;fillColor=none;top=0;left=0;bottom=0;right=0;points=[[0,0.5],[1,0.5]];portConstraint=eastwest;strokeColor=#788AA3;fontColor=#46495D;" parent="VVUkxqM4Ph0whAlOTtxZ-31" vertex="1">
          <mxGeometry y="120" width="180" height="30" as="geometry" />
        </mxCell>
        <mxCell id="VVUkxqM4Ph0whAlOTtxZ-42" value="FK" style="shape=partialRectangle;connectable=0;fillColor=none;top=0;left=0;bottom=0;right=0;editable=1;overflow=hidden;strokeColor=#788AA3;fontColor=#46495D;" parent="VVUkxqM4Ph0whAlOTtxZ-41" vertex="1">
          <mxGeometry width="30" height="30" as="geometry" />
        </mxCell>
        <mxCell id="VVUkxqM4Ph0whAlOTtxZ-43" value="country_id (integer)" style="shape=partialRectangle;connectable=0;fillColor=none;top=0;left=0;bottom=0;right=0;align=left;spacingLeft=6;overflow=hidden;strokeColor=#788AA3;fontColor=#46495D;" parent="VVUkxqM4Ph0whAlOTtxZ-41" vertex="1">
          <mxGeometry x="30" width="150" height="30" as="geometry" />
        </mxCell>
        <mxCell id="VVUkxqM4Ph0whAlOTtxZ-44" value="" style="shape=partialRectangle;collapsible=0;dropTarget=0;pointerEvents=0;fillColor=none;top=0;left=0;bottom=0;right=0;points=[[0,0.5],[1,0.5]];portConstraint=eastwest;strokeColor=#788AA3;fontColor=#46495D;" parent="VVUkxqM4Ph0whAlOTtxZ-31" vertex="1">
          <mxGeometry y="150" width="180" height="30" as="geometry" />
        </mxCell>
        <mxCell id="VVUkxqM4Ph0whAlOTtxZ-45" value="FK" style="shape=partialRectangle;connectable=0;fillColor=none;top=0;left=0;bottom=0;right=0;editable=1;overflow=hidden;strokeColor=#788AA3;fontColor=#46495D;" parent="VVUkxqM4Ph0whAlOTtxZ-44" vertex="1">
          <mxGeometry width="30" height="30" as="geometry" />
        </mxCell>
        <mxCell id="VVUkxqM4Ph0whAlOTtxZ-46" value="province_id (integer)" style="shape=partialRectangle;connectable=0;fillColor=none;top=0;left=0;bottom=0;right=0;align=left;spacingLeft=6;overflow=hidden;strokeColor=#788AA3;fontColor=#46495D;" parent="VVUkxqM4Ph0whAlOTtxZ-44" vertex="1">
          <mxGeometry x="30" width="150" height="30" as="geometry" />
        </mxCell>
        <mxCell id="VVUkxqM4Ph0whAlOTtxZ-47" value="" style="shape=partialRectangle;collapsible=0;dropTarget=0;pointerEvents=0;fillColor=none;top=0;left=0;bottom=0;right=0;points=[[0,0.5],[1,0.5]];portConstraint=eastwest;strokeColor=#788AA3;fontColor=#46495D;" parent="VVUkxqM4Ph0whAlOTtxZ-31" vertex="1">
          <mxGeometry y="180" width="180" height="30" as="geometry" />
        </mxCell>
        <mxCell id="VVUkxqM4Ph0whAlOTtxZ-48" value="FK" style="shape=partialRectangle;connectable=0;fillColor=none;top=0;left=0;bottom=0;right=0;editable=1;overflow=hidden;strokeColor=#788AA3;fontColor=#46495D;" parent="VVUkxqM4Ph0whAlOTtxZ-47" vertex="1">
          <mxGeometry width="30" height="30" as="geometry" />
        </mxCell>
        <mxCell id="VVUkxqM4Ph0whAlOTtxZ-49" value="district_id (integer)" style="shape=partialRectangle;connectable=0;fillColor=none;top=0;left=0;bottom=0;right=0;align=left;spacingLeft=6;overflow=hidden;strokeColor=#788AA3;fontColor=#46495D;" parent="VVUkxqM4Ph0whAlOTtxZ-47" vertex="1">
          <mxGeometry x="30" width="150" height="30" as="geometry" />
        </mxCell>
        <mxCell id="VVUkxqM4Ph0whAlOTtxZ-50" style="shape=partialRectangle;collapsible=0;dropTarget=0;pointerEvents=0;fillColor=none;top=0;left=0;bottom=0;right=0;points=[[0,0.5],[1,0.5]];portConstraint=eastwest;strokeColor=#788AA3;fontColor=#46495D;" parent="VVUkxqM4Ph0whAlOTtxZ-31" vertex="1">
          <mxGeometry y="210" width="180" height="30" as="geometry" />
        </mxCell>
        <mxCell id="VVUkxqM4Ph0whAlOTtxZ-51" style="shape=partialRectangle;connectable=0;fillColor=none;top=0;left=0;bottom=0;right=0;editable=1;overflow=hidden;strokeColor=#788AA3;fontColor=#46495D;" parent="VVUkxqM4Ph0whAlOTtxZ-50" vertex="1">
          <mxGeometry width="30" height="30" as="geometry" />
        </mxCell>
        <mxCell id="VVUkxqM4Ph0whAlOTtxZ-52" value="address_detail (text)" style="shape=partialRectangle;connectable=0;fillColor=none;top=0;left=0;bottom=0;right=0;align=left;spacingLeft=6;overflow=hidden;strokeColor=#788AA3;fontColor=#46495D;" parent="VVUkxqM4Ph0whAlOTtxZ-50" vertex="1">
          <mxGeometry x="30" width="150" height="30" as="geometry" />
        </mxCell>
        <mxCell id="VVUkxqM4Ph0whAlOTtxZ-53" style="shape=partialRectangle;collapsible=0;dropTarget=0;pointerEvents=0;fillColor=none;top=0;left=0;bottom=0;right=0;points=[[0,0.5],[1,0.5]];portConstraint=eastwest;strokeColor=#788AA3;fontColor=#46495D;" parent="VVUkxqM4Ph0whAlOTtxZ-31" vertex="1">
          <mxGeometry y="240" width="180" height="30" as="geometry" />
        </mxCell>
        <mxCell id="VVUkxqM4Ph0whAlOTtxZ-54" style="shape=partialRectangle;connectable=0;fillColor=none;top=0;left=0;bottom=0;right=0;editable=1;overflow=hidden;strokeColor=#788AA3;fontColor=#46495D;" parent="VVUkxqM4Ph0whAlOTtxZ-53" vertex="1">
          <mxGeometry width="30" height="30" as="geometry" />
        </mxCell>
        <mxCell id="VVUkxqM4Ph0whAlOTtxZ-55" value="contact_number (varchar)" style="shape=partialRectangle;connectable=0;fillColor=none;top=0;left=0;bottom=0;right=0;align=left;spacingLeft=6;overflow=hidden;strokeColor=#788AA3;fontColor=#46495D;" parent="VVUkxqM4Ph0whAlOTtxZ-53" vertex="1">
          <mxGeometry x="30" width="150" height="30" as="geometry" />
        </mxCell>
        <mxCell id="VVUkxqM4Ph0whAlOTtxZ-56" value="" style="shape=partialRectangle;collapsible=0;dropTarget=0;pointerEvents=0;fillColor=none;top=0;left=0;bottom=0;right=0;points=[[0,0.5],[1,0.5]];portConstraint=eastwest;strokeColor=#788AA3;fontColor=#46495D;" parent="VVUkxqM4Ph0whAlOTtxZ-31" vertex="1">
          <mxGeometry y="270" width="180" height="30" as="geometry" />
        </mxCell>
        <mxCell id="VVUkxqM4Ph0whAlOTtxZ-57" value="" style="shape=partialRectangle;connectable=0;fillColor=none;top=0;left=0;bottom=0;right=0;editable=1;overflow=hidden;strokeColor=#788AA3;fontColor=#46495D;" parent="VVUkxqM4Ph0whAlOTtxZ-56" vertex="1">
          <mxGeometry width="30" height="30" as="geometry" />
        </mxCell>
        <mxCell id="VVUkxqM4Ph0whAlOTtxZ-58" value="invoice_format (varchar)" style="shape=partialRectangle;connectable=0;fillColor=none;top=0;left=0;bottom=0;right=0;align=left;spacingLeft=6;overflow=hidden;strokeColor=#788AA3;fontColor=#46495D;" parent="VVUkxqM4Ph0whAlOTtxZ-56" vertex="1">
          <mxGeometry x="30" width="150" height="30" as="geometry" />
        </mxCell>
        <mxCell id="VVUkxqM4Ph0whAlOTtxZ-59" value="" style="shape=partialRectangle;collapsible=0;dropTarget=0;pointerEvents=0;fillColor=none;top=0;left=0;bottom=0;right=0;points=[[0,0.5],[1,0.5]];portConstraint=eastwest;strokeColor=#788AA3;fontColor=#46495D;" parent="VVUkxqM4Ph0whAlOTtxZ-31" vertex="1">
          <mxGeometry y="300" width="180" height="30" as="geometry" />
        </mxCell>
        <mxCell id="VVUkxqM4Ph0whAlOTtxZ-60" value="" style="shape=partialRectangle;connectable=0;fillColor=none;top=0;left=0;bottom=0;right=0;editable=1;overflow=hidden;strokeColor=#788AA3;fontColor=#46495D;" parent="VVUkxqM4Ph0whAlOTtxZ-59" vertex="1">
          <mxGeometry width="30" height="30" as="geometry" />
        </mxCell>
        <mxCell id="VVUkxqM4Ph0whAlOTtxZ-61" value="created_at (date)" style="shape=partialRectangle;connectable=0;fillColor=none;top=0;left=0;bottom=0;right=0;align=left;spacingLeft=6;overflow=hidden;strokeColor=#788AA3;fontColor=#46495D;" parent="VVUkxqM4Ph0whAlOTtxZ-59" vertex="1">
          <mxGeometry x="30" width="150" height="30" as="geometry" />
        </mxCell>
        <mxCell id="VVUkxqM4Ph0whAlOTtxZ-62" value="" style="shape=partialRectangle;collapsible=0;dropTarget=0;pointerEvents=0;fillColor=none;top=0;left=0;bottom=0;right=0;points=[[0,0.5],[1,0.5]];portConstraint=eastwest;strokeColor=#788AA3;fontColor=#46495D;" parent="VVUkxqM4Ph0whAlOTtxZ-31" vertex="1">
          <mxGeometry y="330" width="180" height="30" as="geometry" />
        </mxCell>
        <mxCell id="VVUkxqM4Ph0whAlOTtxZ-63" value="" style="shape=partialRectangle;connectable=0;fillColor=none;top=0;left=0;bottom=0;right=0;editable=1;overflow=hidden;strokeColor=#788AA3;fontColor=#46495D;" parent="VVUkxqM4Ph0whAlOTtxZ-62" vertex="1">
          <mxGeometry width="30" height="30" as="geometry" />
        </mxCell>
        <mxCell id="VVUkxqM4Ph0whAlOTtxZ-64" value="updated_at (date)" style="shape=partialRectangle;connectable=0;fillColor=none;top=0;left=0;bottom=0;right=0;align=left;spacingLeft=6;overflow=hidden;strokeColor=#788AA3;fontColor=#46495D;" parent="VVUkxqM4Ph0whAlOTtxZ-62" vertex="1">
          <mxGeometry x="30" width="150" height="30" as="geometry" />
        </mxCell>
        <mxCell id="VVUkxqM4Ph0whAlOTtxZ-65" value="" style="shape=partialRectangle;collapsible=0;dropTarget=0;pointerEvents=0;fillColor=none;top=0;left=0;bottom=0;right=0;points=[[0,0.5],[1,0.5]];portConstraint=eastwest;strokeColor=#788AA3;fontColor=#46495D;" parent="VVUkxqM4Ph0whAlOTtxZ-31" vertex="1">
          <mxGeometry y="360" width="180" height="30" as="geometry" />
        </mxCell>
        <mxCell id="VVUkxqM4Ph0whAlOTtxZ-66" value="" style="shape=partialRectangle;connectable=0;fillColor=none;top=0;left=0;bottom=0;right=0;editable=1;overflow=hidden;strokeColor=#788AA3;fontColor=#46495D;" parent="VVUkxqM4Ph0whAlOTtxZ-65" vertex="1">
          <mxGeometry width="30" height="30" as="geometry" />
        </mxCell>
        <mxCell id="VVUkxqM4Ph0whAlOTtxZ-67" value="deleted_at (date)" style="shape=partialRectangle;connectable=0;fillColor=none;top=0;left=0;bottom=0;right=0;align=left;spacingLeft=6;overflow=hidden;strokeColor=#788AA3;fontColor=#46495D;" parent="VVUkxqM4Ph0whAlOTtxZ-65" vertex="1">
          <mxGeometry x="30" width="150" height="30" as="geometry" />
        </mxCell>
        <mxCell id="VVUkxqM4Ph0whAlOTtxZ-68" value="" style="edgeStyle=entityRelationEdgeStyle;fontSize=12;html=1;endArrow=ERoneToMany;exitX=1;exitY=0.5;exitDx=0;exitDy=0;entryX=0;entryY=0.5;entryDx=0;entryDy=0;strokeColor=#788AA3;fontColor=#46495D;" parent="1" source="VVUkxqM4Ph0whAlOTtxZ-32" target="VVUkxqM4Ph0whAlOTtxZ-5" edge="1">
          <mxGeometry width="100" height="100" relative="1" as="geometry">
            <mxPoint x="80" y="280" as="sourcePoint" />
            <mxPoint x="180" y="180" as="targetPoint" />
          </mxGeometry>
        </mxCell>
        <mxCell id="VVUkxqM4Ph0whAlOTtxZ-69" value="product" style="shape=table;startSize=30;container=1;collapsible=1;childLayout=tableLayout;fixedRows=1;rowLines=0;fontStyle=1;align=center;resizeLast=1;rounded=0;sketch=0;strokeColor=#788AA3;fillColor=#B2C9AB;fontColor=#46495D;" parent="1" vertex="1">
          <mxGeometry x="190" y="390" width="180" height="160" as="geometry" />
        </mxCell>
        <mxCell id="VVUkxqM4Ph0whAlOTtxZ-70" value="" style="shape=partialRectangle;collapsible=0;dropTarget=0;pointerEvents=0;fillColor=none;top=0;left=0;bottom=1;right=0;points=[[0,0.5],[1,0.5]];portConstraint=eastwest;" parent="VVUkxqM4Ph0whAlOTtxZ-69" vertex="1">
          <mxGeometry y="30" width="180" height="30" as="geometry" />
        </mxCell>
        <mxCell id="VVUkxqM4Ph0whAlOTtxZ-71" value="PK" style="shape=partialRectangle;connectable=0;fillColor=none;top=0;left=0;bottom=0;right=0;fontStyle=1;overflow=hidden;" parent="VVUkxqM4Ph0whAlOTtxZ-70" vertex="1">
          <mxGeometry width="30" height="30" as="geometry" />
        </mxCell>
        <mxCell id="VVUkxqM4Ph0whAlOTtxZ-72" value="product_id (integer)" style="shape=partialRectangle;connectable=0;fillColor=none;top=0;left=0;bottom=0;right=0;align=left;spacingLeft=6;fontStyle=5;overflow=hidden;" parent="VVUkxqM4Ph0whAlOTtxZ-70" vertex="1">
          <mxGeometry x="30" width="150" height="30" as="geometry" />
        </mxCell>
        <mxCell id="VVUkxqM4Ph0whAlOTtxZ-73" value="" style="shape=partialRectangle;collapsible=0;dropTarget=0;pointerEvents=0;fillColor=none;top=0;left=0;bottom=0;right=0;points=[[0,0.5],[1,0.5]];portConstraint=eastwest;" parent="VVUkxqM4Ph0whAlOTtxZ-69" vertex="1">
          <mxGeometry y="60" width="180" height="30" as="geometry" />
        </mxCell>
        <mxCell id="VVUkxqM4Ph0whAlOTtxZ-74" value="" style="shape=partialRectangle;connectable=0;fillColor=none;top=0;left=0;bottom=0;right=0;editable=1;overflow=hidden;" parent="VVUkxqM4Ph0whAlOTtxZ-73" vertex="1">
          <mxGeometry width="30" height="30" as="geometry" />
        </mxCell>
        <mxCell id="VVUkxqM4Ph0whAlOTtxZ-75" value="shop_id (integer)" style="shape=partialRectangle;connectable=0;fillColor=none;top=0;left=0;bottom=0;right=0;align=left;spacingLeft=6;overflow=hidden;" parent="VVUkxqM4Ph0whAlOTtxZ-73" vertex="1">
          <mxGeometry x="30" width="150" height="30" as="geometry" />
        </mxCell>
        <mxCell id="VVUkxqM4Ph0whAlOTtxZ-76" value="" style="shape=partialRectangle;collapsible=0;dropTarget=0;pointerEvents=0;fillColor=none;top=0;left=0;bottom=0;right=0;points=[[0,0.5],[1,0.5]];portConstraint=eastwest;" parent="VVUkxqM4Ph0whAlOTtxZ-69" vertex="1">
          <mxGeometry y="90" width="180" height="30" as="geometry" />
        </mxCell>
        <mxCell id="VVUkxqM4Ph0whAlOTtxZ-77" value="" style="shape=partialRectangle;connectable=0;fillColor=none;top=0;left=0;bottom=0;right=0;editable=1;overflow=hidden;" parent="VVUkxqM4Ph0whAlOTtxZ-76" vertex="1">
          <mxGeometry width="30" height="30" as="geometry" />
        </mxCell>
        <mxCell id="VVUkxqM4Ph0whAlOTtxZ-78" value="product_name (varchar)" style="shape=partialRectangle;connectable=0;fillColor=none;top=0;left=0;bottom=0;right=0;align=left;spacingLeft=6;overflow=hidden;" parent="VVUkxqM4Ph0whAlOTtxZ-76" vertex="1">
          <mxGeometry x="30" width="150" height="30" as="geometry" />
        </mxCell>
        <mxCell id="VVUkxqM4Ph0whAlOTtxZ-79" value="" style="shape=partialRectangle;collapsible=0;dropTarget=0;pointerEvents=0;fillColor=none;top=0;left=0;bottom=0;right=0;points=[[0,0.5],[1,0.5]];portConstraint=eastwest;" parent="VVUkxqM4Ph0whAlOTtxZ-69" vertex="1">
          <mxGeometry y="120" width="180" height="30" as="geometry" />
        </mxCell>
        <mxCell id="VVUkxqM4Ph0whAlOTtxZ-80" value="" style="shape=partialRectangle;connectable=0;fillColor=none;top=0;left=0;bottom=0;right=0;editable=1;overflow=hidden;" parent="VVUkxqM4Ph0whAlOTtxZ-79" vertex="1">
          <mxGeometry width="30" height="30" as="geometry" />
        </mxCell>
        <mxCell id="VVUkxqM4Ph0whAlOTtxZ-81" value="product_price (double)" style="shape=partialRectangle;connectable=0;fillColor=none;top=0;left=0;bottom=0;right=0;align=left;spacingLeft=6;overflow=hidden;" parent="VVUkxqM4Ph0whAlOTtxZ-79" vertex="1">
          <mxGeometry x="30" width="150" height="30" as="geometry" />
        </mxCell>
        <mxCell id="VVUkxqM4Ph0whAlOTtxZ-82" value="" style="edgeStyle=entityRelationEdgeStyle;fontSize=12;html=1;endArrow=ERoneToMany;strokeColor=#788AA3;fillColor=#B2C9AB;exitX=1;exitY=0.5;exitDx=0;exitDy=0;" parent="1" source="VVUkxqM4Ph0whAlOTtxZ-70" target="VVUkxqM4Ph0whAlOTtxZ-27" edge="1">
          <mxGeometry width="100" height="100" relative="1" as="geometry">
            <mxPoint x="420" y="520" as="sourcePoint" />
            <mxPoint x="520" y="420" as="targetPoint" />
          </mxGeometry>
        </mxCell>
        <mxCell id="VVUkxqM4Ph0whAlOTtxZ-83" value="" style="edgeStyle=entityRelationEdgeStyle;fontSize=12;html=1;endArrow=ERoneToMany;strokeColor=#788AA3;fillColor=#B2C9AB;exitX=1;exitY=0.5;exitDx=0;exitDy=0;entryX=0;entryY=0.5;entryDx=0;entryDy=0;" parent="1" source="VVUkxqM4Ph0whAlOTtxZ-32" target="VVUkxqM4Ph0whAlOTtxZ-73" edge="1">
          <mxGeometry width="100" height="100" relative="1" as="geometry">
            <mxPoint x="60" y="530" as="sourcePoint" />
            <mxPoint x="160" y="430" as="targetPoint" />
          </mxGeometry>
        </mxCell>
        <mxCell id="VVUkxqM4Ph0whAlOTtxZ-84" value="country" style="shape=table;startSize=30;container=1;collapsible=1;childLayout=tableLayout;fixedRows=1;rowLines=0;fontStyle=1;align=center;resizeLast=1;rounded=0;sketch=0;strokeColor=#788AA3;fillColor=#B2C9AB;fontColor=#46495D;" parent="1" vertex="1">
          <mxGeometry x="-770" y="170" width="180" height="130" as="geometry" />
        </mxCell>
        <mxCell id="VVUkxqM4Ph0whAlOTtxZ-85" value="" style="shape=partialRectangle;collapsible=0;dropTarget=0;pointerEvents=0;fillColor=none;top=0;left=0;bottom=1;right=0;points=[[0,0.5],[1,0.5]];portConstraint=eastwest;" parent="VVUkxqM4Ph0whAlOTtxZ-84" vertex="1">
          <mxGeometry y="30" width="180" height="30" as="geometry" />
        </mxCell>
        <mxCell id="VVUkxqM4Ph0whAlOTtxZ-86" value="PK" style="shape=partialRectangle;connectable=0;fillColor=none;top=0;left=0;bottom=0;right=0;fontStyle=1;overflow=hidden;" parent="VVUkxqM4Ph0whAlOTtxZ-85" vertex="1">
          <mxGeometry width="30" height="30" as="geometry" />
        </mxCell>
        <mxCell id="VVUkxqM4Ph0whAlOTtxZ-87" value="country_id (id)" style="shape=partialRectangle;connectable=0;fillColor=none;top=0;left=0;bottom=0;right=0;align=left;spacingLeft=6;fontStyle=5;overflow=hidden;" parent="VVUkxqM4Ph0whAlOTtxZ-85" vertex="1">
          <mxGeometry x="30" width="150" height="30" as="geometry" />
        </mxCell>
        <mxCell id="VVUkxqM4Ph0whAlOTtxZ-88" value="" style="shape=partialRectangle;collapsible=0;dropTarget=0;pointerEvents=0;fillColor=none;top=0;left=0;bottom=0;right=0;points=[[0,0.5],[1,0.5]];portConstraint=eastwest;" parent="VVUkxqM4Ph0whAlOTtxZ-84" vertex="1">
          <mxGeometry y="60" width="180" height="30" as="geometry" />
        </mxCell>
        <mxCell id="VVUkxqM4Ph0whAlOTtxZ-89" value="" style="shape=partialRectangle;connectable=0;fillColor=none;top=0;left=0;bottom=0;right=0;editable=1;overflow=hidden;" parent="VVUkxqM4Ph0whAlOTtxZ-88" vertex="1">
          <mxGeometry width="30" height="30" as="geometry" />
        </mxCell>
        <mxCell id="VVUkxqM4Ph0whAlOTtxZ-90" value="country_name (varchar)" style="shape=partialRectangle;connectable=0;fillColor=none;top=0;left=0;bottom=0;right=0;align=left;spacingLeft=6;overflow=hidden;" parent="VVUkxqM4Ph0whAlOTtxZ-88" vertex="1">
          <mxGeometry x="30" width="150" height="30" as="geometry" />
        </mxCell>
        <mxCell id="VVUkxqM4Ph0whAlOTtxZ-91" value="" style="shape=partialRectangle;collapsible=0;dropTarget=0;pointerEvents=0;fillColor=none;top=0;left=0;bottom=0;right=0;points=[[0,0.5],[1,0.5]];portConstraint=eastwest;" parent="VVUkxqM4Ph0whAlOTtxZ-84" vertex="1">
          <mxGeometry y="90" width="180" height="30" as="geometry" />
        </mxCell>
        <mxCell id="VVUkxqM4Ph0whAlOTtxZ-92" value="" style="shape=partialRectangle;connectable=0;fillColor=none;top=0;left=0;bottom=0;right=0;editable=1;overflow=hidden;" parent="VVUkxqM4Ph0whAlOTtxZ-91" vertex="1">
          <mxGeometry width="30" height="30" as="geometry" />
        </mxCell>
        <mxCell id="VVUkxqM4Ph0whAlOTtxZ-93" value="phone_prefix (varchar)" style="shape=partialRectangle;connectable=0;fillColor=none;top=0;left=0;bottom=0;right=0;align=left;spacingLeft=6;overflow=hidden;" parent="VVUkxqM4Ph0whAlOTtxZ-91" vertex="1">
          <mxGeometry x="30" width="150" height="30" as="geometry" />
        </mxCell>
        <mxCell id="VVUkxqM4Ph0whAlOTtxZ-94" value="province" style="shape=table;startSize=30;container=1;collapsible=1;childLayout=tableLayout;fixedRows=1;rowLines=0;fontStyle=1;align=center;resizeLast=1;rounded=0;sketch=0;strokeColor=#788AA3;fillColor=#B2C9AB;fontColor=#46495D;" parent="1" vertex="1">
          <mxGeometry x="-530" y="250" width="180" height="130" as="geometry" />
        </mxCell>
        <mxCell id="VVUkxqM4Ph0whAlOTtxZ-95" value="" style="shape=partialRectangle;collapsible=0;dropTarget=0;pointerEvents=0;fillColor=none;top=0;left=0;bottom=1;right=0;points=[[0,0.5],[1,0.5]];portConstraint=eastwest;" parent="VVUkxqM4Ph0whAlOTtxZ-94" vertex="1">
          <mxGeometry y="30" width="180" height="30" as="geometry" />
        </mxCell>
        <mxCell id="VVUkxqM4Ph0whAlOTtxZ-96" value="PK" style="shape=partialRectangle;connectable=0;fillColor=none;top=0;left=0;bottom=0;right=0;fontStyle=1;overflow=hidden;" parent="VVUkxqM4Ph0whAlOTtxZ-95" vertex="1">
          <mxGeometry width="30" height="30" as="geometry" />
        </mxCell>
        <mxCell id="VVUkxqM4Ph0whAlOTtxZ-97" value="province_id (integer)" style="shape=partialRectangle;connectable=0;fillColor=none;top=0;left=0;bottom=0;right=0;align=left;spacingLeft=6;fontStyle=5;overflow=hidden;" parent="VVUkxqM4Ph0whAlOTtxZ-95" vertex="1">
          <mxGeometry x="30" width="150" height="30" as="geometry" />
        </mxCell>
        <mxCell id="VVUkxqM4Ph0whAlOTtxZ-98" value="" style="shape=partialRectangle;collapsible=0;dropTarget=0;pointerEvents=0;fillColor=none;top=0;left=0;bottom=0;right=0;points=[[0,0.5],[1,0.5]];portConstraint=eastwest;" parent="VVUkxqM4Ph0whAlOTtxZ-94" vertex="1">
          <mxGeometry y="60" width="180" height="30" as="geometry" />
        </mxCell>
        <mxCell id="VVUkxqM4Ph0whAlOTtxZ-99" value="" style="shape=partialRectangle;connectable=0;fillColor=none;top=0;left=0;bottom=0;right=0;editable=1;overflow=hidden;" parent="VVUkxqM4Ph0whAlOTtxZ-98" vertex="1">
          <mxGeometry width="30" height="30" as="geometry" />
        </mxCell>
        <mxCell id="VVUkxqM4Ph0whAlOTtxZ-100" value="province_name" style="shape=partialRectangle;connectable=0;fillColor=none;top=0;left=0;bottom=0;right=0;align=left;spacingLeft=6;overflow=hidden;" parent="VVUkxqM4Ph0whAlOTtxZ-98" vertex="1">
          <mxGeometry x="30" width="150" height="30" as="geometry" />
        </mxCell>
        <mxCell id="VVUkxqM4Ph0whAlOTtxZ-101" value="" style="shape=partialRectangle;collapsible=0;dropTarget=0;pointerEvents=0;fillColor=none;top=0;left=0;bottom=0;right=0;points=[[0,0.5],[1,0.5]];portConstraint=eastwest;" parent="VVUkxqM4Ph0whAlOTtxZ-94" vertex="1">
          <mxGeometry y="90" width="180" height="30" as="geometry" />
        </mxCell>
        <mxCell id="VVUkxqM4Ph0whAlOTtxZ-102" value="" style="shape=partialRectangle;connectable=0;fillColor=none;top=0;left=0;bottom=0;right=0;editable=1;overflow=hidden;" parent="VVUkxqM4Ph0whAlOTtxZ-101" vertex="1">
          <mxGeometry width="30" height="30" as="geometry" />
        </mxCell>
        <mxCell id="VVUkxqM4Ph0whAlOTtxZ-103" value="country_id (varchar)" style="shape=partialRectangle;connectable=0;fillColor=none;top=0;left=0;bottom=0;right=0;align=left;spacingLeft=6;overflow=hidden;" parent="VVUkxqM4Ph0whAlOTtxZ-101" vertex="1">
          <mxGeometry x="30" width="150" height="30" as="geometry" />
        </mxCell>
        <mxCell id="VVUkxqM4Ph0whAlOTtxZ-104" value="district" style="shape=table;startSize=30;container=1;collapsible=1;childLayout=tableLayout;fixedRows=1;rowLines=0;fontStyle=1;align=center;resizeLast=1;rounded=0;sketch=0;strokeColor=#788AA3;fillColor=#B2C9AB;fontColor=#46495D;" parent="1" vertex="1">
          <mxGeometry x="-290" y="330" width="180" height="130" as="geometry" />
        </mxCell>
        <mxCell id="VVUkxqM4Ph0whAlOTtxZ-105" value="" style="shape=partialRectangle;collapsible=0;dropTarget=0;pointerEvents=0;fillColor=none;top=0;left=0;bottom=1;right=0;points=[[0,0.5],[1,0.5]];portConstraint=eastwest;" parent="VVUkxqM4Ph0whAlOTtxZ-104" vertex="1">
          <mxGeometry y="30" width="180" height="30" as="geometry" />
        </mxCell>
        <mxCell id="VVUkxqM4Ph0whAlOTtxZ-106" value="PK" style="shape=partialRectangle;connectable=0;fillColor=none;top=0;left=0;bottom=0;right=0;fontStyle=1;overflow=hidden;" parent="VVUkxqM4Ph0whAlOTtxZ-105" vertex="1">
          <mxGeometry width="30" height="30" as="geometry" />
        </mxCell>
        <mxCell id="VVUkxqM4Ph0whAlOTtxZ-107" value="ditstrict_id" style="shape=partialRectangle;connectable=0;fillColor=none;top=0;left=0;bottom=0;right=0;align=left;spacingLeft=6;fontStyle=5;overflow=hidden;" parent="VVUkxqM4Ph0whAlOTtxZ-105" vertex="1">
          <mxGeometry x="30" width="150" height="30" as="geometry" />
        </mxCell>
        <mxCell id="VVUkxqM4Ph0whAlOTtxZ-108" value="" style="shape=partialRectangle;collapsible=0;dropTarget=0;pointerEvents=0;fillColor=none;top=0;left=0;bottom=0;right=0;points=[[0,0.5],[1,0.5]];portConstraint=eastwest;" parent="VVUkxqM4Ph0whAlOTtxZ-104" vertex="1">
          <mxGeometry y="60" width="180" height="30" as="geometry" />
        </mxCell>
        <mxCell id="VVUkxqM4Ph0whAlOTtxZ-109" value="" style="shape=partialRectangle;connectable=0;fillColor=none;top=0;left=0;bottom=0;right=0;editable=1;overflow=hidden;" parent="VVUkxqM4Ph0whAlOTtxZ-108" vertex="1">
          <mxGeometry width="30" height="30" as="geometry" />
        </mxCell>
        <mxCell id="VVUkxqM4Ph0whAlOTtxZ-110" value="district_name" style="shape=partialRectangle;connectable=0;fillColor=none;top=0;left=0;bottom=0;right=0;align=left;spacingLeft=6;overflow=hidden;" parent="VVUkxqM4Ph0whAlOTtxZ-108" vertex="1">
          <mxGeometry x="30" width="150" height="30" as="geometry" />
        </mxCell>
        <mxCell id="VVUkxqM4Ph0whAlOTtxZ-111" value="" style="shape=partialRectangle;collapsible=0;dropTarget=0;pointerEvents=0;fillColor=none;top=0;left=0;bottom=0;right=0;points=[[0,0.5],[1,0.5]];portConstraint=eastwest;" parent="VVUkxqM4Ph0whAlOTtxZ-104" vertex="1">
          <mxGeometry y="90" width="180" height="30" as="geometry" />
        </mxCell>
        <mxCell id="VVUkxqM4Ph0whAlOTtxZ-112" value="" style="shape=partialRectangle;connectable=0;fillColor=none;top=0;left=0;bottom=0;right=0;editable=1;overflow=hidden;" parent="VVUkxqM4Ph0whAlOTtxZ-111" vertex="1">
          <mxGeometry width="30" height="30" as="geometry" />
        </mxCell>
        <mxCell id="VVUkxqM4Ph0whAlOTtxZ-113" value="province_id" style="shape=partialRectangle;connectable=0;fillColor=none;top=0;left=0;bottom=0;right=0;align=left;spacingLeft=6;overflow=hidden;" parent="VVUkxqM4Ph0whAlOTtxZ-111" vertex="1">
          <mxGeometry x="30" width="150" height="30" as="geometry" />
        </mxCell>
        <mxCell id="VVUkxqM4Ph0whAlOTtxZ-114" value="" style="edgeStyle=entityRelationEdgeStyle;fontSize=12;html=1;endArrow=ERoneToMany;strokeColor=#788AA3;fillColor=#B2C9AB;exitX=1;exitY=0.5;exitDx=0;exitDy=0;" parent="1" source="VVUkxqM4Ph0whAlOTtxZ-85" target="VVUkxqM4Ph0whAlOTtxZ-41" edge="1">
          <mxGeometry width="100" height="100" relative="1" as="geometry">
            <mxPoint x="-170" y="70" as="sourcePoint" />
            <mxPoint x="-70" y="-30" as="targetPoint" />
          </mxGeometry>
        </mxCell>
        <mxCell id="VVUkxqM4Ph0whAlOTtxZ-115" value="" style="edgeStyle=entityRelationEdgeStyle;fontSize=12;html=1;endArrow=ERoneToMany;strokeColor=#788AA3;fillColor=#B2C9AB;entryX=0;entryY=0.5;entryDx=0;entryDy=0;" parent="1" source="VVUkxqM4Ph0whAlOTtxZ-95" target="VVUkxqM4Ph0whAlOTtxZ-44" edge="1">
          <mxGeometry width="100" height="100" relative="1" as="geometry">
            <mxPoint x="39.99999999999977" y="50" as="sourcePoint" />
            <mxPoint x="139.99999999999977" y="-50" as="targetPoint" />
          </mxGeometry>
        </mxCell>
        <mxCell id="VVUkxqM4Ph0whAlOTtxZ-116" value="" style="edgeStyle=entityRelationEdgeStyle;fontSize=12;html=1;endArrow=ERoneToMany;strokeColor=#788AA3;fillColor=#B2C9AB;" parent="1" source="VVUkxqM4Ph0whAlOTtxZ-105" target="VVUkxqM4Ph0whAlOTtxZ-47" edge="1">
          <mxGeometry width="100" height="100" relative="1" as="geometry">
            <mxPoint x="29.999999999999773" y="-20" as="sourcePoint" />
            <mxPoint x="129.99999999999977" y="-120" as="targetPoint" />
          </mxGeometry>
        </mxCell>
        <mxCell id="VVUkxqM4Ph0whAlOTtxZ-117" value="" style="edgeStyle=entityRelationEdgeStyle;fontSize=12;html=1;endArrow=ERoneToMany;strokeColor=#788AA3;fillColor=#B2C9AB;" parent="1" source="VVUkxqM4Ph0whAlOTtxZ-95" target="VVUkxqM4Ph0whAlOTtxZ-111" edge="1">
          <mxGeometry width="100" height="100" relative="1" as="geometry">
            <mxPoint x="-260" y="370" as="sourcePoint" />
            <mxPoint x="-160" y="270" as="targetPoint" />
          </mxGeometry>
        </mxCell>
        <mxCell id="VVUkxqM4Ph0whAlOTtxZ-118" value="" style="edgeStyle=entityRelationEdgeStyle;fontSize=12;html=1;endArrow=ERoneToMany;strokeColor=#788AA3;fillColor=#B2C9AB;exitX=1;exitY=0.5;exitDx=0;exitDy=0;entryX=0;entryY=0.5;entryDx=0;entryDy=0;" parent="1" source="VVUkxqM4Ph0whAlOTtxZ-85" target="VVUkxqM4Ph0whAlOTtxZ-101" edge="1">
          <mxGeometry width="100" height="100" relative="1" as="geometry">
            <mxPoint x="-240" y="390" as="sourcePoint" />
            <mxPoint x="-140" y="290" as="targetPoint" />
          </mxGeometry>
        </mxCell>
        <mxCell id="VVUkxqM4Ph0whAlOTtxZ-119" value="user" style="shape=table;startSize=30;container=1;collapsible=1;childLayout=tableLayout;fixedRows=1;rowLines=0;fontStyle=1;align=center;resizeLast=1;rounded=0;sketch=0;strokeColor=#788AA3;fillColor=#B2C9AB;fontColor=#46495D;" parent="1" vertex="1">
          <mxGeometry x="-310" y="10" width="200" height="210" as="geometry" />
        </mxCell>
        <mxCell id="VVUkxqM4Ph0whAlOTtxZ-120" value="" style="shape=partialRectangle;collapsible=0;dropTarget=0;pointerEvents=0;fillColor=none;top=0;left=0;bottom=1;right=0;points=[[0,0.5],[1,0.5]];portConstraint=eastwest;" parent="VVUkxqM4Ph0whAlOTtxZ-119" vertex="1">
          <mxGeometry y="30" width="200" height="30" as="geometry" />
        </mxCell>
        <mxCell id="VVUkxqM4Ph0whAlOTtxZ-121" value="PK" style="shape=partialRectangle;connectable=0;fillColor=none;top=0;left=0;bottom=0;right=0;fontStyle=1;overflow=hidden;" parent="VVUkxqM4Ph0whAlOTtxZ-120" vertex="1">
          <mxGeometry width="30" height="30" as="geometry" />
        </mxCell>
        <mxCell id="VVUkxqM4Ph0whAlOTtxZ-122" value="user_id (integer)" style="shape=partialRectangle;connectable=0;fillColor=none;top=0;left=0;bottom=0;right=0;align=left;spacingLeft=6;fontStyle=5;overflow=hidden;" parent="VVUkxqM4Ph0whAlOTtxZ-120" vertex="1">
          <mxGeometry x="30" width="170" height="30" as="geometry" />
        </mxCell>
        <mxCell id="VVUkxqM4Ph0whAlOTtxZ-123" value="" style="shape=partialRectangle;collapsible=0;dropTarget=0;pointerEvents=0;fillColor=none;top=0;left=0;bottom=0;right=0;points=[[0,0.5],[1,0.5]];portConstraint=eastwest;" parent="VVUkxqM4Ph0whAlOTtxZ-119" vertex="1">
          <mxGeometry y="60" width="200" height="30" as="geometry" />
        </mxCell>
        <mxCell id="VVUkxqM4Ph0whAlOTtxZ-124" value="" style="shape=partialRectangle;connectable=0;fillColor=none;top=0;left=0;bottom=0;right=0;editable=1;overflow=hidden;" parent="VVUkxqM4Ph0whAlOTtxZ-123" vertex="1">
          <mxGeometry width="30" height="30" as="geometry" />
        </mxCell>
        <mxCell id="VVUkxqM4Ph0whAlOTtxZ-125" value="email (varchar)" style="shape=partialRectangle;connectable=0;fillColor=none;top=0;left=0;bottom=0;right=0;align=left;spacingLeft=6;overflow=hidden;" parent="VVUkxqM4Ph0whAlOTtxZ-123" vertex="1">
          <mxGeometry x="30" width="170" height="30" as="geometry" />
        </mxCell>
        <mxCell id="VVUkxqM4Ph0whAlOTtxZ-126" value="" style="shape=partialRectangle;collapsible=0;dropTarget=0;pointerEvents=0;fillColor=none;top=0;left=0;bottom=0;right=0;points=[[0,0.5],[1,0.5]];portConstraint=eastwest;" parent="VVUkxqM4Ph0whAlOTtxZ-119" vertex="1">
          <mxGeometry y="90" width="200" height="30" as="geometry" />
        </mxCell>
        <mxCell id="VVUkxqM4Ph0whAlOTtxZ-127" value="" style="shape=partialRectangle;connectable=0;fillColor=none;top=0;left=0;bottom=0;right=0;editable=1;overflow=hidden;" parent="VVUkxqM4Ph0whAlOTtxZ-126" vertex="1">
          <mxGeometry width="30" height="30" as="geometry" />
        </mxCell>
        <mxCell id="VVUkxqM4Ph0whAlOTtxZ-128" value="password (varchar)" style="shape=partialRectangle;connectable=0;fillColor=none;top=0;left=0;bottom=0;right=0;align=left;spacingLeft=6;overflow=hidden;" parent="VVUkxqM4Ph0whAlOTtxZ-126" vertex="1">
          <mxGeometry x="30" width="170" height="30" as="geometry" />
        </mxCell>
        <mxCell id="VVUkxqM4Ph0whAlOTtxZ-129" value="" style="shape=partialRectangle;collapsible=0;dropTarget=0;pointerEvents=0;fillColor=none;top=0;left=0;bottom=0;right=0;points=[[0,0.5],[1,0.5]];portConstraint=eastwest;" parent="VVUkxqM4Ph0whAlOTtxZ-119" vertex="1">
          <mxGeometry y="120" width="200" height="20" as="geometry" />
        </mxCell>
        <mxCell id="VVUkxqM4Ph0whAlOTtxZ-130" value="" style="shape=partialRectangle;connectable=0;fillColor=none;top=0;left=0;bottom=0;right=0;editable=1;overflow=hidden;" parent="VVUkxqM4Ph0whAlOTtxZ-129" vertex="1">
          <mxGeometry width="30" height="20" as="geometry" />
        </mxCell>
        <mxCell id="VVUkxqM4Ph0whAlOTtxZ-131" value="full_name (var char)" style="shape=partialRectangle;connectable=0;fillColor=none;top=0;left=0;bottom=0;right=0;align=left;spacingLeft=6;overflow=hidden;" parent="VVUkxqM4Ph0whAlOTtxZ-129" vertex="1">
          <mxGeometry x="30" width="170" height="20" as="geometry" />
        </mxCell>
        <mxCell id="VVUkxqM4Ph0whAlOTtxZ-132" value="" style="shape=partialRectangle;collapsible=0;dropTarget=0;pointerEvents=0;fillColor=none;top=0;left=0;bottom=0;right=0;points=[[0,0.5],[1,0.5]];portConstraint=eastwest;" parent="VVUkxqM4Ph0whAlOTtxZ-119" vertex="1">
          <mxGeometry y="140" width="200" height="30" as="geometry" />
        </mxCell>
        <mxCell id="VVUkxqM4Ph0whAlOTtxZ-133" value="" style="shape=partialRectangle;connectable=0;fillColor=none;top=0;left=0;bottom=0;right=0;editable=1;overflow=hidden;" parent="VVUkxqM4Ph0whAlOTtxZ-132" vertex="1">
          <mxGeometry width="30" height="30" as="geometry" />
        </mxCell>
        <mxCell id="VVUkxqM4Ph0whAlOTtxZ-134" value="contact_number (varchar)" style="shape=partialRectangle;connectable=0;fillColor=none;top=0;left=0;bottom=0;right=0;align=left;spacingLeft=6;overflow=hidden;" parent="VVUkxqM4Ph0whAlOTtxZ-132" vertex="1">
          <mxGeometry x="30" width="170" height="30" as="geometry" />
        </mxCell>
        <mxCell id="VVUkxqM4Ph0whAlOTtxZ-135" value="" style="shape=partialRectangle;collapsible=0;dropTarget=0;pointerEvents=0;fillColor=none;top=0;left=0;bottom=0;right=0;points=[[0,0.5],[1,0.5]];portConstraint=eastwest;" parent="VVUkxqM4Ph0whAlOTtxZ-119" vertex="1">
          <mxGeometry y="170" width="200" height="30" as="geometry" />
        </mxCell>
        <mxCell id="VVUkxqM4Ph0whAlOTtxZ-136" value="" style="shape=partialRectangle;connectable=0;fillColor=none;top=0;left=0;bottom=0;right=0;editable=1;overflow=hidden;" parent="VVUkxqM4Ph0whAlOTtxZ-135" vertex="1">
          <mxGeometry width="30" height="30" as="geometry" />
        </mxCell>
        <mxCell id="VVUkxqM4Ph0whAlOTtxZ-137" value="usertype (owner, customer)" style="shape=partialRectangle;connectable=0;fillColor=none;top=0;left=0;bottom=0;right=0;align=left;spacingLeft=6;overflow=hidden;" parent="VVUkxqM4Ph0whAlOTtxZ-135" vertex="1">
          <mxGeometry x="30" width="170" height="30" as="geometry" />
        </mxCell>
        <mxCell id="VVUkxqM4Ph0whAlOTtxZ-138" value="" style="edgeStyle=entityRelationEdgeStyle;fontSize=12;html=1;endArrow=ERzeroToMany;endFill=1;strokeColor=#788AA3;fillColor=#B2C9AB;exitX=1;exitY=0.5;exitDx=0;exitDy=0;entryX=0;entryY=0.5;entryDx=0;entryDy=0;" parent="1" source="VVUkxqM4Ph0whAlOTtxZ-120" target="VVUkxqM4Ph0whAlOTtxZ-38" edge="1">
          <mxGeometry width="100" height="100" relative="1" as="geometry">
            <mxPoint x="-40" y="60" as="sourcePoint" />
            <mxPoint x="60" y="-40" as="targetPoint" />
          </mxGeometry>
        </mxCell>
      </root>
    </mxGraphModel>
  </diagram>
</mxfile>
